<?xml version="1.0" standalone="no"?>
<!DOCTYPE svg PUBLIC "-//W3C//DTD SVG 20010904//EN"
 "http://www.w3.org/TR/2001/REC-SVG-20010904/DTD/svg10.dtd">
<svg version="1.0" xmlns="http://www.w3.org/2000/svg"
 width="300.000000pt" height="145.000000pt" viewBox="0 0 300.000000 145.000000"
 preserveAspectRatio="xMidYMid meet">
<metadata>
Created by potrace 1.10, written by Peter Selinger 2001-2011
</metadata>
<g transform="translate(0.000000,145.000000) scale(0.100000,-0.100000)"
fill="#000000" stroke="none">
<path d="M1407 1408 c-29 -21 -68 -77 -80 -113 -6 -19 -6 -19 6 -1 30 48 81
96 113 106 61 21 134 -22 177 -105 9 -16 16 -25 17 -20 0 21 -61 114 -89 134
-39 28 -106 28 -144 -1z"/>
<path d="M1433 1375 c-74 -32 -135 -174 -137 -319 -1 -66 2 -81 14 -81 11 0
17 19 22 80 11 118 41 207 87 255 48 51 73 51 120 2 46 -48 71 -120 85 -241 9
-73 15 -96 26 -96 12 0 15 16 13 83 -3 149 -59 279 -136 315 -42 20 -52 20
-94 2z"/>
<path d="M1782 1129 c6 -17 8 -46 5 -65 -3 -19 -2 -34 4 -34 5 0 9 7 9 16 0 8
5 12 11 8 6 -3 14 -1 18 5 5 7 19 -7 38 -37 102 -164 109 -358 19 -489 -35
-50 -116 -113 -147 -113 -18 0 -18 2 4 48 50 98 77 179 77 226 0 38 -17 10
-42 -69 -24 -77 -70 -170 -116 -234 l-17 -24 48 6 c61 9 136 47 183 94 124
126 139 359 35 538 -30 53 -117 155 -131 155 -5 0 -4 -14 2 -31z"/>
<path d="M1140 1060 c-11 -21 -63 -622 -58 -675 2 -16 8 -29 13 -27 6 1 10 5
11 10 0 4 3 63 8 132 6 117 29 372 42 485 3 28 9 53 12 57 4 3 24 8 46 11 68
9 67 27 -2 27 -51 0 -63 -3 -72 -20z"/>
<path d="M1375 1064 c25 -19 197 -16 217 4 10 9 -13 12 -112 12 -115 -1 -123
-2 -105 -16z"/>
<path d="M1690 1071 c0 -14 40 -20 66 -11 36 14 29 20 -21 20 -25 0 -45 -4
-45 -9z"/>
<path d="M1350 970 c-6 -11 -17 -20 -25 -20 -8 0 -15 -4 -15 -10 0 -5 4 -10
10 -10 11 0 50 40 50 52 0 14 -9 9 -20 -12z"/>
<path d="M1600 972 c0 -20 27 -42 47 -39 25 4 53 25 53 41 0 8 -2 8 -8 0 -4
-6 -17 -16 -29 -23 -19 -10 -26 -8 -43 9 -11 11 -20 16 -20 12z"/>
<path d="M1772 728 c-7 -7 -12 -17 -12 -23 0 -16 -79 -164 -109 -205 -14 -19
-40 -51 -57 -71 -18 -20 -35 -46 -38 -56 -6 -19 -17 -20 -151 -21 -165 -2
-307 -13 -515 -43 -155 -21 -243 -44 -135 -34 260 24 380 29 745 29 370 0 536
-7 750 -31 30 -3 52 -3 49 1 -18 20 -483 76 -631 76 -54 0 -98 2 -98 5 0 3 19
24 41 47 74 77 133 177 163 277 17 58 17 68 -2 49z"/>
<path d="M764 659 c-4 -8 -8 -43 -8 -79 0 -54 5 -75 27 -113 16 -26 45 -59 66
-73 43 -28 128 -42 157 -26 16 10 16 11 3 12 -10 0 -41 16 -69 35 -40 27 -56
33 -66 24 -18 -14 -27 -7 -58 45 -21 37 -35 86 -23 86 1 0 41 -16 87 -35 77
-32 120 -62 120 -86 0 -12 -17 -11 -25 1 -4 6 -10 8 -15 5 -4 -2 -19 4 -33 15
-33 26 -56 27 -33 1 18 -20 127 -81 145 -81 13 0 4 53 -15 92 -19 36 -46 54
-124 79 -74 24 -97 41 -115 83 -9 21 -14 25 -21 15z"/>
<path d="M2103 571 c-8 -21 -23 -33 -59 -46 -105 -37 -123 -47 -138 -80 -23
-48 -21 -68 7 -60 40 13 82 41 85 59 4 17 2 17 -22 1 -22 -15 -26 -15 -26 -2
0 8 8 17 18 20 9 3 41 14 70 25 49 19 52 19 52 2 0 -23 -39 -72 -54 -67 -6 2
-23 -4 -38 -15 -15 -10 -42 -25 -60 -32 l-33 -14 28 -7 c43 -11 94 3 134 38
43 38 63 82 63 139 0 58 -13 76 -27 39z"/>
<path d="M1496 506 c5 -70 31 -156 33 -108 1 13 -4 32 -9 43 -7 13 -7 19 0 19
14 0 13 27 -1 32 -6 2 -15 22 -20 43 -6 30 -7 22 -3 -29z"/>
<path d="M820 155 l0 -105 66 0 c57 0 65 2 62 17 -2 14 -13 18 -43 18 -36 0
-40 3 -40 25 0 22 4 25 35 25 25 0 36 5 38 18 3 14 -4 17 -37 17 -37 0 -41 2
-41 25 0 23 4 25 40 25 33 0 40 3 40 20 0 18 -7 20 -60 20 l-60 0 0 -105z"/>
<path d="M1017 244 c-15 -8 -32 -26 -37 -40 -15 -38 -12 -97 5 -121 34 -49
145 -55 145 -8 0 22 -2 22 -29 12 -45 -16 -81 11 -81 62 0 50 26 75 75 69 31
-4 35 -1 35 19 0 20 -5 23 -42 23 -24 -1 -56 -8 -71 -16z"/>
<path d="M1198 245 c-52 -29 -61 -130 -15 -173 75 -70 192 1 172 106 -13 72
-88 104 -157 67z m96 -47 c22 -31 20 -74 -4 -98 -25 -25 -45 -25 -70 0 -38 38
-15 120 35 120 13 0 31 -10 39 -22z"/>
<path d="M1412 244 c-44 -30 -23 -89 41 -113 30 -12 36 -38 11 -48 -10 -3 -30
-1 -45 4 -27 10 -29 9 -29 -12 0 -29 36 -39 90 -25 68 18 68 86 0 116 -47 21
-57 40 -28 55 15 8 27 8 44 0 22 -10 24 -8 24 14 0 23 -4 25 -43 25 -23 0 -53
-7 -65 -16z"/>
<path d="M1570 155 c0 -98 1 -105 20 -105 17 0 20 7 20 43 l0 44 45 -1 45 -1
0 -42 c0 -39 2 -43 25 -43 l25 0 0 105 0 105 -25 0 c-23 0 -25 -4 -25 -45 l0
-45 -45 0 -45 0 0 45 c0 38 -3 45 -20 45 -19 0 -20 -7 -20 -105z"/>
<path d="M1825 238 c-56 -49 -48 -149 15 -181 46 -23 87 -14 124 25 25 28 28
36 23 81 -3 39 -11 56 -31 74 -36 31 -95 31 -131 1z m105 -37 c5 -11 10 -36
10 -55 0 -65 -73 -87 -98 -30 -16 34 -15 55 4 82 20 28 69 30 84 3z"/>
<path d="M2028 156 c-3 -104 -3 -106 20 -106 19 0 22 5 22 35 0 32 3 35 29 35
40 0 81 35 81 69 0 48 -21 64 -88 69 l-61 4 -3 -106z m101 39 c3 -19 -23 -45
-46 -45 -13 0 -19 61 -7 73 11 10 49 -10 53 -28z"/>
</g>
</svg>
