<!DOCTYPE svg PUBLIC "-//W3C//DTD SVG 1.1//EN" "http://www.w3.org/Graphics/SVG/1.1/DTD/svg11.dtd">
<!-- Uploaded to: SVG Repo, www.svgrepo.com, Transformed by: SVG Repo Mixer Tools -->
<svg fill="#235f9f" height="800px" width="800px" version="1.1" id="Layer_1" xmlns="http://www.w3.org/2000/svg" xmlns:xlink="http://www.w3.org/1999/xlink" viewBox="0 0 503.655 503.655" xml:space="preserve" stroke="#235f9f">
<g id="SVGRepo_bgCarrier" stroke-width="0"/>
<g id="SVGRepo_tracerCarrier" stroke-linecap="round" stroke-linejoin="round"/>
<g id="SVGRepo_iconCarrier"> <g> <g> <path d="M503.632,331.392c0-96.894-50.176-130.938-67.181-139.692c-0.873-67.743-18.222-118.666-51.611-151.409 c-37.401-36.688-80.762-36.251-82.65-36.243c-27.346,0-42.412,10.039-50.352,18.667c-7.932-8.628-22.964-18.667-50.21-18.667 c-1.897-0.05-45.375-0.478-82.818,36.243C85.42,73.033,68.071,123.956,67.198,191.7c-17.005,8.754-67.173,42.773-67.173,139.482 c-0.134,5.38-2.241,132.222,89.306,167.516l0.831,0.269c0.353,0.101,2.56,0.646,6.245,0.646c12.171,0,40.398-6.043,70.245-54.717 l1.469-4.885v50.856c0,4.633,3.752,8.393,8.393,8.393c4.642,0,8.393-3.76,8.393-8.393v-42.504 c0.948,0.638,1.897,1.267,2.845,1.905l7.806,5.246c3.181,2.157,6.278,4.449,9.375,6.74c13.438,9.938,27.337,20.22,46.894,20.22 c19.548,0,33.448-10.282,46.886-20.22c3.097-2.291,6.194-4.583,9.375-6.74l7.873-5.288l0.008-0.008 c1.083-0.722,2.149-1.444,3.231-2.157v42.807c0,4.633,3.752,8.393,8.393,8.393c4.642,0,8.393-3.76,8.393-8.393v-48.38l0.092,0.319 l0.915,2.09c29.856,48.674,58.074,54.717,70.245,54.717c3.685,0,5.892-0.546,6.245-0.646l0.831-0.269 C505.864,463.404,503.757,336.562,503.632,331.392z M368.589,262.297c-3.391,34.279-17.769,65.612-29.234,85.857 c-1.561,2.77-2.971,5.607-4.255,8.511c-0.411,0.94-0.73,1.922-1.108,2.879c-0.797,1.981-1.612,3.953-2.266,5.985 c-0.394,1.183-0.671,2.392-1.007,3.592c-0.537,1.847-1.074,3.685-1.494,5.565c-0.294,1.309-0.478,2.636-0.722,3.962 c-0.319,1.796-0.663,3.576-0.89,5.389c-0.176,1.402-0.243,2.812-0.361,4.222c-0.143,1.746-0.294,3.5-0.344,5.263 c-0.042,1.46,0,2.913,0.025,4.365c0.025,1.729,0.05,3.45,0.159,5.17c0.109,1.486,0.285,2.971,0.453,4.457 c0.185,1.695,0.378,3.383,0.655,5.061c0.243,1.502,0.571,2.98,0.881,4.474c0.218,1.049,0.369,2.115,0.621,3.164 c-3.089,2.333-6.287,4.583-9.493,6.807c-4.516,3.148-9.073,6.236-13.648,9.3l-7.898,5.305c-3.366,2.283-6.648,4.709-9.929,7.134 c-11.768,8.704-22.897,16.93-36.906,16.93c-14.017,0-25.147-8.226-36.914-16.93c-3.282-2.426-6.564-4.851-9.938-7.134l-7.89-5.305 c-4.532-3.038-9.048-6.094-13.522-9.216c-3.248-2.258-6.488-4.532-9.619-6.891c0.252-1.041,0.394-2.098,0.613-3.139 c0.327-1.502,0.646-2.997,0.89-4.499c0.277-1.679,0.47-3.366,0.655-5.053c0.176-1.486,0.353-2.971,0.453-4.465 c0.109-1.721,0.134-3.441,0.159-5.17c0.025-1.452,0.067-2.904,0.025-4.365c-0.05-1.763-0.201-3.517-0.344-5.263 c-0.109-1.41-0.185-2.82-0.361-4.222c-0.227-1.813-0.571-3.601-0.89-5.389c-0.243-1.326-0.428-2.652-0.722-3.962 c-0.42-1.88-0.957-3.718-1.494-5.565c-0.336-1.2-0.613-2.409-1.007-3.592c-0.655-2.023-1.46-3.995-2.258-5.968 c-0.378-0.957-0.705-1.947-1.116-2.896c-1.284-2.896-2.694-5.741-4.255-8.503c-11.465-20.253-25.843-51.586-29.234-85.865 c-0.151-1.553-0.084-3.097,0.185-4.616c0.814-4.524,3.441-8.687,7.428-11.474c1.377-0.965,2.929-2.073,4.474-3.173 c0.311-0.227,0.588-0.42,0.906-0.646c1.116-0.797,2.317-1.67,3.492-2.535c1.016-0.73,2.014-1.452,3.072-2.224 c1.058-0.789,2.174-1.612,3.282-2.434c1.309-0.974,2.627-1.956,3.987-2.98c1.049-0.797,2.115-1.603,3.198-2.434 c1.511-1.167,3.055-2.35,4.625-3.576c1.041-0.806,2.082-1.62,3.139-2.451c1.704-1.343,3.433-2.719,5.179-4.13 c0.99-0.797,1.964-1.578,2.971-2.401c1.972-1.612,3.979-3.282,5.993-4.961c0.797-0.671,1.578-1.318,2.384-1.998 c5.699-4.835,11.449-9.904,17.106-15.184c0.579-0.52,1.125-1.066,1.687-1.595c2.216-2.082,4.415-4.188,6.581-6.329 c0.848-0.831,1.679-1.679,2.518-2.526c1.855-1.863,3.685-3.735,5.489-5.632c0.923-0.974,1.821-1.956,2.736-2.929 c1.662-1.805,3.29-3.601,4.893-5.422c0.915-1.041,1.821-2.082,2.711-3.131c1.544-1.813,3.013-3.626,4.474-5.447 c0.831-1.041,1.679-2.073,2.468-3.114c1.477-1.905,2.854-3.819,4.214-5.741c0.672-0.948,1.385-1.897,2.023-2.845 c1.603-2.35,3.072-4.692,4.474-7.034c0.302-0.504,0.655-1.007,0.94-1.511c0.042-0.076,0.101-0.151,0.143-0.227 c0.034,0.076,0.092,0.151,0.134,0.227c0.285,0.504,0.638,1.007,0.94,1.511c1.402,2.342,2.871,4.684,4.474,7.034 c0.638,0.948,1.351,1.897,2.023,2.845c1.36,1.922,2.736,3.836,4.214,5.741c0.797,1.041,1.637,2.073,2.468,3.114 c1.46,1.821,2.929,3.634,4.474,5.447c0.89,1.049,1.796,2.082,2.711,3.131c1.603,1.821,3.232,3.626,4.902,5.431 c0.906,0.974,1.805,1.947,2.719,2.912c1.813,1.905,3.66,3.794,5.531,5.666c0.823,0.831,1.637,1.67,2.476,2.493 c2.199,2.174,4.44,4.314,6.681,6.429c0.529,0.495,1.041,0.999,1.57,1.486c5.682,5.296,11.465,10.399,17.19,15.251 c0.688,0.579,1.368,1.141,2.056,1.712c2.14,1.796,4.272,3.567,6.379,5.288c0.873,0.713,1.729,1.393,2.585,2.09 c1.905,1.528,3.777,3.03,5.624,4.49c0.915,0.713,1.805,1.41,2.694,2.107c1.771,1.385,3.508,2.719,5.221,4.021 c0.873,0.671,1.737,1.326,2.585,1.972c1.67,1.259,3.282,2.459,4.86,3.626c0.806,0.604,1.612,1.2,2.384,1.771 c1.612,1.184,3.131,2.283,4.616,3.366c0.638,0.453,1.309,0.948,1.93,1.385c2.023,1.46,3.953,2.829,5.716,4.062 C366.29,249.925,369.202,256.086,368.589,262.297z"/> </g> </g> </g>
</svg>